<svg width="46" height="46" viewBox="0 0 46 46" fill="none" xmlns="http://www.w3.org/2000/svg">
<g clip-path="url(#clip0_1_963)">
<path d="M4.50051 5.49925L43.0007 44.4132L0.500859 44.4129" stroke="#FEFDF6" stroke-width="2"/>
<path d="M44 1L44 45" stroke="#FEFDF6" stroke-width="2"/>
<path d="M42.7072 18.2929C43.0978 18.6834 43.0978 19.3166 42.7072 19.7071L36.3433 26.0711C35.9527 26.4616 35.3196 26.4616 34.9291 26.0711C34.5385 25.6805 34.5385 25.0474 34.9291 24.6569L40.5859 19L34.9291 13.3431C34.5385 12.9526 34.5385 12.3195 34.9291 11.9289C35.3196 11.5384 35.9527 11.5384 36.3433 11.9289L42.7072 18.2929ZM42.0001 19L42.0001 20C38.7385 20 36.2765 19.7864 33.6519 20.4523C31.0952 21.101 28.3391 22.6144 24.7675 26.2427L24.0549 25.5412L23.3422 24.8396C27.088 21.0344 30.1505 19.2773 33.1601 18.5137C36.1019 17.7674 38.9539 18 42.0001 18L42.0001 19Z" fill="#FEFDF6"/>
<circle cx="5" cy="5" r="4" transform="matrix(-1 0 0 1 27 3)" stroke="#FEFDF6" stroke-width="2"/>
</g>
<defs>
<clipPath id="clip0_1_963">
<rect width="46" height="46" fill="white" transform="matrix(-1 0 0 1 46 0)"/>
</clipPath>
</defs>
</svg>
