<svg width="46" height="46" viewBox="0 0 46 46" fill="none" xmlns="http://www.w3.org/2000/svg">
<g clip-path="url(#clip0_1_977)">
<path d="M37.7071 1.29289C37.3166 0.902369 36.6834 0.902369 36.2929 1.29289L29.9289 7.65685C29.5384 8.04738 29.5384 8.68054 29.9289 9.07107C30.3195 9.46159 30.9526 9.46159 31.3431 9.07107L37 3.41421L42.6569 9.07107C43.0474 9.46159 43.6805 9.46159 44.0711 9.07107C44.4616 8.68054 44.4616 8.04738 44.0711 7.65685L37.7071 1.29289ZM36.2929 44.7071C36.6834 45.0976 37.3166 45.0976 37.7071 44.7071L44.0711 38.3431C44.4616 37.9526 44.4616 37.3195 44.0711 36.9289C43.6805 36.5384 43.0474 36.5384 42.6569 36.9289L37 42.5858L31.3431 36.9289C30.9526 36.5384 30.3195 36.5384 29.9289 36.9289C29.5384 37.3195 29.5384 37.9526 29.9289 38.3431L36.2929 44.7071ZM37 2H36V44H37H38V2H37Z" fill="#FEFDF6"/>
<path d="M-1 2H24" stroke="#FEFDF6" stroke-width="2"/>
<path d="M-1 24H24" stroke="#FEFDF6" stroke-width="2"/>
<path d="M-1 45H24" stroke="#FEFDF6" stroke-width="2"/>
<path d="M-7 12H12" stroke="#FEFDF6" stroke-width="2"/>
<path d="M-7 34H12" stroke="#FEFDF6" stroke-width="2"/>
</g>
<defs>
<clipPath id="clip0_1_977">
<rect width="46" height="46" fill="white"/>
</clipPath>
</defs>
</svg>
