<svg width="46" height="46" viewBox="0 0 46 46" fill="none" xmlns="http://www.w3.org/2000/svg">
<path d="M6 17.93V33.7901L11.7142 42H34V10H12.2858L6 17.93Z" stroke="#FEFDF6" stroke-width="2" stroke-miterlimit="10"/>
<path d="M1 17V35" stroke="#FEFDF6" stroke-width="2" stroke-miterlimit="10"/>
<path d="M6 26H1" stroke="#FEFDF6" stroke-width="2" stroke-miterlimit="10"/>
<path d="M30.4773 3.0918H13.1914" stroke="#FEFDF6" stroke-width="2" stroke-miterlimit="10"/>
<path d="M38.3036 18.4404H34.1719" stroke="#FEFDF6" stroke-width="2" stroke-miterlimit="10"/>
<path d="M38.3036 33.5352H34.1719" stroke="#FEFDF6" stroke-width="2" stroke-miterlimit="10"/>
<path d="M21.8359 10.5199V3" stroke="#FEFDF6" stroke-width="2" stroke-miterlimit="10"/>
<path d="M45.0003 16H38.2891V36.0308H45.0003V16Z" stroke="#FEFDF6" stroke-width="2" stroke-miterlimit="10"/>
<path d="M16.645 25.2899C19.2103 25.2899 21.2899 23.2103 21.2899 20.645C21.2899 18.0796 19.2103 16 16.645 16C14.0796 16 12 18.0796 12 20.645C12 23.2103 14.0796 25.2899 16.645 25.2899Z" stroke="#FEFDF6" stroke-width="2" stroke-miterlimit="10"/>
<path d="M25.5805 36.1611C27.0057 36.1611 28.1611 35.0057 28.1611 33.5805C28.1611 32.1553 27.0057 31 25.5805 31C24.1553 31 23 32.1553 23 33.5805C23 35.0057 24.1553 36.1611 25.5805 36.1611Z" stroke="#FEFDF6" stroke-width="2" stroke-miterlimit="10"/>
</svg>
