<svg width="46" height="46" viewBox="0 0 46 46" fill="none" xmlns="http://www.w3.org/2000/svg">
<g clip-path="url(#clip0_4010_601)">
<path d="M20.4152 44.2731H2V1H43.7803V30.0646" stroke="#FEFDF6" stroke-width="2" stroke-miterlimit="10"/>
<path d="M33.2201 32.298C36.9725 32.298 40.0144 29.2442 40.0144 25.4771C40.0144 21.71 36.9725 18.6562 33.2201 18.6562C29.4677 18.6562 26.4258 21.71 26.4258 25.4771C26.4258 29.2442 29.4677 32.298 33.2201 32.298Z" stroke="#FEFDF6" stroke-width="2" stroke-miterlimit="10"/>
<path d="M27.2432 28.7217L22.4336 41.6777L26.5467 41.0226L28.6819 44.0665L33.2202 32.2976" stroke="#FEFDF6" stroke-width="2" stroke-miterlimit="10"/>
<path d="M39.1899 28.7217L43.9995 41.6777L39.8864 41.0226L37.7512 44.0665L33.3828 32.1949" stroke="#FEFDF6" stroke-width="2" stroke-miterlimit="10"/>
<mask id="path-5-inside-1_4010_601" fill="white">
<path d="M5.786 5.31632C6.48166 5.17376 7.4774 5.09399 8.4258 5.09399C9.89573 5.09399 10.8441 5.36384 11.5085 5.96633C12.0461 6.44238 12.3462 7.17216 12.3462 7.99782C12.3462 9.40985 11.4612 10.3467 10.3387 10.7277V10.7752C11.1603 11.0612 11.6505 11.8223 11.9033 12.9331C12.2507 14.4249 12.5043 15.456 12.7249 15.8692H11.3023C11.1281 15.568 10.8915 14.6473 10.5906 13.3141C10.2744 11.8385 9.70555 11.2827 8.45623 11.2351H7.16042V15.8692H5.78516V5.31632H5.786ZM7.16127 10.188H8.56781C10.0377 10.188 10.9709 9.37845 10.9709 8.1565C10.9709 6.77587 9.97519 6.17253 8.52047 6.15726C7.85693 6.15726 7.38273 6.2209 7.16127 6.28455V10.188Z"/>
</mask>
<path d="M5.786 5.31632C6.48166 5.17376 7.4774 5.09399 8.4258 5.09399C9.89573 5.09399 10.8441 5.36384 11.5085 5.96633C12.0461 6.44238 12.3462 7.17216 12.3462 7.99782C12.3462 9.40985 11.4612 10.3467 10.3387 10.7277V10.7752C11.1603 11.0612 11.6505 11.8223 11.9033 12.9331C12.2507 14.4249 12.5043 15.456 12.7249 15.8692H11.3023C11.1281 15.568 10.8915 14.6473 10.5906 13.3141C10.2744 11.8385 9.70555 11.2827 8.45623 11.2351H7.16042V15.8692H5.78516V5.31632H5.786ZM7.16127 10.188H8.56781C10.0377 10.188 10.9709 9.37845 10.9709 8.1565C10.9709 6.77587 9.97519 6.17253 8.52047 6.15726C7.85693 6.15726 7.38273 6.2209 7.16127 6.28455V10.188Z" fill="#1D1D1B"/>
<path d="M5.786 5.31632V7.31632H5.98882L6.18751 7.2756L5.786 5.31632ZM11.5085 5.96633L10.165 7.44787L10.1738 7.45581L10.1826 7.46365L11.5085 5.96633ZM10.3387 10.7277L9.69583 8.83381L8.33866 9.29446V10.7277H10.3387ZM10.3387 10.7752H8.33866V12.1968L9.68122 12.6641L10.3387 10.7752ZM11.9033 12.9331L9.95308 13.3769L9.95539 13.3868L11.9033 12.9331ZM12.7249 15.8692V17.8692H16.0597L14.4892 14.9273L12.7249 15.8692ZM11.3023 15.8692L9.57073 16.8701L10.1482 17.8692H11.3023V15.8692ZM10.5906 13.3141L8.63492 13.7331L8.63722 13.7438L8.63964 13.7545L10.5906 13.3141ZM8.45623 11.2351L8.53225 9.23658L8.49425 9.23514H8.45623V11.2351ZM7.16042 11.2351V9.23514H5.16042V11.2351H7.16042ZM7.16042 15.8692V17.8692H9.16042V15.8692H7.16042ZM5.78516 15.8692H3.78516V17.8692H5.78516V15.8692ZM5.78516 5.31632V3.31632H3.78516V5.31632H5.78516ZM7.16127 10.188H5.16127V12.188H7.16127V10.188ZM8.52047 6.15726L8.54147 4.15737L8.53097 4.15726H8.52047V6.15726ZM7.16127 6.28455L6.60887 4.36234L5.16127 4.77835V6.28455H7.16127ZM5.786 5.31632L6.18751 7.2756C6.70764 7.16901 7.55923 7.09399 8.4258 7.09399V5.09399V3.09399C7.39556 3.09399 6.25569 3.17851 5.38449 3.35704L5.786 5.31632ZM8.4258 5.09399V7.09399C9.69363 7.09399 10.0402 7.33466 10.165 7.44787L11.5085 5.96633L12.852 4.48479C11.6481 3.39302 10.0978 3.09399 8.4258 3.09399V5.09399ZM11.5085 5.96633L10.1826 7.46365C10.2236 7.49995 10.3462 7.64729 10.3462 7.99782H12.3462H14.3462C14.3462 6.69702 13.8686 5.38481 12.8344 4.46901L11.5085 5.96633ZM12.3462 7.99782H10.3462C10.3462 8.26236 10.2714 8.41145 10.1931 8.51068C10.1021 8.62608 9.94195 8.75027 9.69583 8.83381L10.3387 10.7277L10.9815 12.6216C12.7675 12.0153 14.3462 10.4131 14.3462 7.99782H12.3462ZM10.3387 10.7277H8.33866V10.7752H10.3387H12.3387V10.7277H10.3387ZM10.3387 10.7752L9.68122 12.6641C9.68251 12.6645 9.68008 12.6637 9.67546 12.6612C9.67084 12.6587 9.66706 12.6561 9.66485 12.6544C9.65929 12.65 9.67223 12.6583 9.69886 12.6961C9.75923 12.7819 9.86343 12.9827 9.95311 13.3769L11.9033 12.9331L13.8534 12.4894C13.5345 11.0879 12.7682 9.50316 10.9961 8.88635L10.3387 10.7752ZM11.9033 12.9331L9.95539 13.3868C10.1284 14.1296 10.2862 14.7935 10.4313 15.3288C10.5608 15.8068 10.7291 16.3776 10.9605 16.8111L12.7249 15.8692L14.4892 14.9273C14.5 14.9476 14.4312 14.7962 14.292 14.2824C14.1683 13.826 14.0255 13.2284 13.8511 12.4795L11.9033 12.9331ZM12.7249 15.8692V13.8692H11.3023V15.8692V17.8692H12.7249V15.8692ZM11.3023 15.8692L13.0338 14.8683C13.0894 14.9645 13.0918 14.9982 13.0514 14.8804C13.0193 14.7872 12.9767 14.6475 12.9234 14.4522C12.817 14.062 12.6904 13.5337 12.5415 12.8738L10.5906 13.3141L8.63964 13.7545C8.79159 14.4277 8.93386 15.0263 9.0645 15.5051C9.17163 15.8977 9.33259 16.4581 9.57073 16.8701L11.3023 15.8692ZM10.5906 13.3141L12.5462 12.8952C12.3593 12.0228 12.0298 11.0481 11.2693 10.3069C10.4487 9.50702 9.4381 9.27104 8.53225 9.23658L8.45623 11.2351L8.38021 13.2337C8.55719 13.2404 8.61821 13.2625 8.61188 13.2603C8.59027 13.2528 8.53201 13.2246 8.47735 13.1713C8.43002 13.1252 8.43813 13.1111 8.47591 13.195C8.51675 13.2856 8.5745 13.4511 8.63492 13.7331L10.5906 13.3141ZM8.45623 11.2351V9.23514H7.16042V11.2351V13.2351H8.45623V11.2351ZM7.16042 11.2351H5.16042V15.8692H7.16042H9.16042V11.2351H7.16042ZM7.16042 15.8692V13.8692H5.78516V15.8692V17.8692H7.16042V15.8692ZM5.78516 15.8692H7.78516V5.31632H5.78516H3.78516V15.8692H5.78516ZM5.78516 5.31632V7.31632H5.786V5.31632V3.31632H5.78516V5.31632ZM7.16127 10.188V12.188H8.56781V10.188V8.18799H7.16127V10.188ZM8.56781 10.188V12.188C9.65693 12.188 10.7559 11.8867 11.6173 11.1532C12.5098 10.3931 12.9709 9.31398 12.9709 8.1565H10.9709H8.97093C8.97093 8.20459 8.96256 8.20398 8.97549 8.175C8.98911 8.14445 9.00983 8.11977 9.02392 8.10777C9.05125 8.0845 8.94861 8.18799 8.56781 8.18799V10.188ZM10.9709 8.1565H12.9709C12.9709 6.92708 12.4941 5.80226 11.4965 5.04887C10.5924 4.36607 9.49482 4.16738 8.54147 4.15737L8.52047 6.15726L8.49947 8.15715C8.73236 8.15959 8.89458 8.18553 8.99667 8.21304C9.0976 8.24024 9.11332 8.26158 9.08591 8.24088C9.04971 8.21354 9.00493 8.16297 8.9774 8.10346C8.95296 8.05062 8.97093 8.05295 8.97093 8.1565H10.9709ZM8.52047 6.15726V4.15726C7.7799 4.15726 7.09147 4.22366 6.60887 4.36234L7.16127 6.28455L7.71366 8.20675C7.66588 8.22048 7.71062 8.20415 7.88225 8.18628C8.03579 8.17029 8.25068 8.15726 8.52047 8.15726V6.15726ZM7.16127 6.28455H5.16127V10.188H7.16127H9.16127V6.28455H7.16127Z" fill="#FEFDF6" mask="url(#path-5-inside-1_4010_601)"/>
<mask id="path-7-inside-2_4010_601" fill="white">
<path d="M15.6648 5.17285V11.5049C15.6648 13.9013 16.7239 14.917 18.1465 14.917C19.7272 14.917 20.739 13.8699 20.739 11.5049V5.17285H22.1303V11.4099C22.1303 14.6947 20.4076 16.044 18.0992 16.044C15.9175 16.044 14.2734 14.7906 14.2734 11.4735V5.17285H15.6648Z"/>
</mask>
<path d="M15.6648 5.17285V11.5049C15.6648 13.9013 16.7239 14.917 18.1465 14.917C19.7272 14.917 20.739 13.8699 20.739 11.5049V5.17285H22.1303V11.4099C22.1303 14.6947 20.4076 16.044 18.0992 16.044C15.9175 16.044 14.2734 14.7906 14.2734 11.4735V5.17285H15.6648Z" fill="#1D1D1B"/>
<path d="M15.6648 5.17285H17.6648V3.17285H15.6648V5.17285ZM20.739 5.17285V3.17285H18.739V5.17285H20.739ZM22.1303 5.17285H24.1303V3.17285H22.1303V5.17285ZM14.2734 5.17285V3.17285H12.2734V5.17285H14.2734ZM15.6648 5.17285H13.6648V11.5049H15.6648H17.6648V5.17285H15.6648ZM15.6648 11.5049H13.6648C13.6648 12.9626 13.9826 14.3238 14.8102 15.3587C15.6876 16.456 16.922 16.917 18.1465 16.917V14.917V12.917C18.0291 12.917 17.9782 12.8965 17.9689 12.8924C17.966 12.8911 17.9571 12.8893 17.9341 12.8605C17.8765 12.7884 17.6648 12.4436 17.6648 11.5049H15.6648ZM18.1465 14.917V16.917C19.409 16.917 20.6849 16.4761 21.5909 15.3551C22.4399 14.3047 22.739 12.9305 22.739 11.5049H20.739H18.739C18.739 12.4444 18.5321 12.7762 18.48 12.8406C18.4616 12.8634 18.4524 12.8689 18.4345 12.8765C18.4075 12.888 18.3224 12.917 18.1465 12.917V14.917ZM20.739 11.5049H22.739V5.17285H20.739H18.739V11.5049H20.739ZM20.739 5.17285V7.17285H22.1303V5.17285V3.17285H20.739V5.17285ZM22.1303 5.17285H20.1303V11.4099H22.1303H24.1303V5.17285H22.1303ZM22.1303 11.4099H20.1303C20.1303 12.7173 19.7909 13.3103 19.5388 13.5724C19.2943 13.8266 18.8686 14.044 18.0992 14.044V16.044V18.044C19.6382 18.044 21.228 17.5867 22.422 16.345C23.6084 15.1113 24.1303 13.3873 24.1303 11.4099H22.1303ZM18.0992 16.044V14.044C17.3864 14.044 17.027 13.8475 16.826 13.6334C16.608 13.4013 16.2734 12.8257 16.2734 11.4735H14.2734H12.2734C12.2734 13.4384 12.7609 15.148 13.9103 16.3719C15.0768 17.6137 16.6303 18.044 18.0992 18.044V16.044ZM14.2734 11.4735H16.2734V5.17285H14.2734H12.2734V11.4735H14.2734ZM14.2734 5.17285V7.17285H15.6648V5.17285V3.17285H14.2734V5.17285Z" fill="#FEFDF6" mask="url(#path-7-inside-2_4010_601)"/>
<mask id="path-9-inside-3_4010_601" fill="white">
<path d="M24.3287 14.1864C24.9449 14.5674 25.846 14.8848 26.7944 14.8848C28.2009 14.8848 29.0234 14.1389 29.0234 13.0595C29.0234 12.0599 28.4545 11.4888 27.0159 10.933C25.2771 10.3144 24.2019 9.40979 24.2019 7.90187C24.2019 6.23527 25.5772 4.99805 27.6481 4.99805C28.7385 4.99805 29.5289 5.25177 30.0031 5.52162L29.6235 6.64853C29.2761 6.45845 28.5644 6.14108 27.5999 6.14108C26.1461 6.14108 25.5924 7.01426 25.5924 7.74404C25.5924 8.74366 26.2407 9.23583 27.7107 9.80693C29.5128 10.5053 30.4299 11.3776 30.4299 12.9492C30.4299 14.5997 29.2127 16.0278 26.6997 16.0278C25.6719 16.0278 24.5502 15.7266 23.9805 15.3456L24.3279 14.1873L24.3287 14.1864Z"/>
</mask>
<path d="M24.3287 14.1864C24.9449 14.5674 25.846 14.8848 26.7944 14.8848C28.2009 14.8848 29.0234 14.1389 29.0234 13.0595C29.0234 12.0599 28.4545 11.4888 27.0159 10.933C25.2771 10.3144 24.2019 9.40979 24.2019 7.90187C24.2019 6.23527 25.5772 4.99805 27.6481 4.99805C28.7385 4.99805 29.5289 5.25177 30.0031 5.52162L29.6235 6.64853C29.2761 6.45845 28.5644 6.14108 27.5999 6.14108C26.1461 6.14108 25.5924 7.01426 25.5924 7.74404C25.5924 8.74366 26.2407 9.23583 27.7107 9.80693C29.5128 10.5053 30.4299 11.3776 30.4299 12.9492C30.4299 14.5997 29.2127 16.0278 26.6997 16.0278C25.6719 16.0278 24.5502 15.7266 23.9805 15.3456L24.3279 14.1873L24.3287 14.1864Z" fill="#1D1D1B"/>
<path d="M24.3287 14.1864L25.3805 12.4853L24.0323 11.6517L22.9128 12.7739L24.3287 14.1864ZM27.0159 10.933L27.7366 9.06738L27.7116 9.0577L27.6863 9.04869L27.0159 10.933ZM30.0031 5.52162L31.8985 6.15997L32.4244 4.59834L30.9922 3.78336L30.0031 5.52162ZM29.6235 6.64853L28.6635 8.40307L30.7572 9.54859L31.5189 7.28687L29.6235 6.64853ZM27.7107 9.80693L26.9864 11.6712L26.988 11.6718L27.7107 9.80693ZM23.9805 15.3456L22.0648 14.771L21.6402 16.1865L22.8686 17.0081L23.9805 15.3456ZM24.3279 14.1873L22.912 12.7747L22.5567 13.1309L22.4122 13.6127L24.3279 14.1873ZM24.3287 14.1864L23.2769 15.8875C24.17 16.4397 25.431 16.8848 26.7944 16.8848V14.8848V12.8848C26.261 12.8848 25.7198 12.6951 25.3805 12.4853L24.3287 14.1864ZM26.7944 14.8848V16.8848C27.836 16.8848 28.8927 16.6077 29.7251 15.9064C30.5908 15.1769 31.0234 14.144 31.0234 13.0595H29.0234H27.0234C27.0234 13.0729 27.0216 13.0407 27.0469 12.9841C27.0732 12.9253 27.1122 12.8774 27.1476 12.8475C27.2171 12.7889 27.1593 12.8848 26.7944 12.8848V14.8848ZM29.0234 13.0595H31.0234C31.0234 12.1146 30.7281 11.2051 30.0055 10.4485C29.3744 9.78773 28.5384 9.37715 27.7366 9.06738L27.0159 10.933L26.2951 12.7986C26.5944 12.9142 26.7991 13.0121 26.9379 13.092C27.0757 13.1715 27.1166 13.2152 27.1128 13.2112C27.1003 13.1981 27.0642 13.1524 27.0386 13.084C27.0155 13.022 27.0234 13.0009 27.0234 13.0595H29.0234ZM27.0159 10.933L27.6863 9.04869C26.9521 8.78749 26.5659 8.53382 26.3795 8.34515C26.2515 8.21565 26.2019 8.11303 26.2019 7.90187H24.2019H22.2019C22.2019 9.19864 22.6899 10.3023 23.5343 11.1567C24.3201 11.9519 25.3409 12.4599 26.3455 12.8173L27.0159 10.933ZM24.2019 7.90187H26.2019C26.2019 7.65421 26.2893 7.4815 26.4515 7.34219C26.6317 7.18741 27.0056 6.99805 27.6481 6.99805V4.99805V2.99805C26.2197 2.99805 24.8705 3.4273 23.8453 4.30777C22.8022 5.20373 22.2019 6.48293 22.2019 7.90187H24.2019ZM27.6481 4.99805V6.99805C28.4383 6.99805 28.8792 7.18325 29.0139 7.25988L30.0031 5.52162L30.9922 3.78336C30.1785 3.32029 29.0387 2.99805 27.6481 2.99805V4.99805ZM30.0031 5.52162L28.1077 4.88327L27.7281 6.01018L29.6235 6.64853L31.5189 7.28687L31.8985 6.15997L30.0031 5.52162ZM29.6235 6.64853L30.5835 4.89398C30.053 4.60373 29.0073 4.14108 27.5999 4.14108V6.14108V8.14108C28.1215 8.14108 28.4992 8.31316 28.6635 8.40307L29.6235 6.64853ZM27.5999 6.14108V4.14108C26.4603 4.14108 25.4238 4.49338 24.6608 5.23101C23.9167 5.95045 23.5924 6.88655 23.5924 7.74404H25.5924H27.5924C27.5924 7.87175 27.545 8.00637 27.4411 8.10678C27.3903 8.15592 27.3521 8.17008 27.3567 8.1684C27.3646 8.16552 27.4363 8.14108 27.5999 8.14108V6.14108ZM25.5924 7.74404H23.5924C23.5924 8.77812 23.9705 9.69165 24.7434 10.4054C25.387 10.9999 26.2268 11.3761 26.9864 11.6712L27.7107 9.80693L28.435 7.94268C28.1048 7.81442 27.8687 7.70873 27.6977 7.61792C27.5255 7.52648 27.4643 7.47341 27.4572 7.46691C27.4564 7.46614 27.471 7.47958 27.4921 7.50845C27.5138 7.53826 27.5363 7.57643 27.5553 7.62069C27.596 7.71576 27.5924 7.77308 27.5924 7.74404H25.5924ZM27.7107 9.80693L26.988 11.6718C27.7709 11.9752 28.1145 12.2285 28.2638 12.3933C28.3495 12.488 28.4299 12.6039 28.4299 12.9492H30.4299H32.4299C32.4299 11.7229 32.0518 10.6169 31.2284 9.70796C30.4686 8.86912 29.4526 8.33704 28.4334 7.94206L27.7107 9.80693ZM30.4299 12.9492H28.4299C28.4299 13.2687 28.3224 13.4813 28.1604 13.6289C27.991 13.7832 27.5791 14.0278 26.6997 14.0278V16.0278V18.0278C28.3333 18.0278 29.7866 17.5583 30.854 16.586C31.9289 15.6069 32.4299 14.2802 32.4299 12.9492H30.4299ZM26.6997 16.0278V14.0278C26.3692 14.0278 25.9988 13.9777 25.6644 13.8921C25.5004 13.8501 25.3617 13.8038 25.2541 13.7601C25.2011 13.7385 25.1603 13.7195 25.1311 13.7045C25.1012 13.6892 25.0895 13.6812 25.0923 13.6831L23.9805 15.3456L22.8686 17.0081C23.862 17.6724 25.4077 18.0278 26.6997 18.0278V16.0278ZM23.9805 15.3456L25.8962 15.9201L26.2436 14.7618L24.3279 14.1873L22.4122 13.6127L22.0648 14.771L23.9805 15.3456ZM24.3279 14.1873L25.7438 15.5998L25.7446 15.599L24.3287 14.1864L22.9128 12.7739L22.912 12.7747L24.3279 14.1873Z" fill="#FEFDF6" mask="url(#path-9-inside-3_4010_601)"/>
<path d="M5.89062 21.9365H21.4851" stroke="#FEFDF6" stroke-width="2" stroke-miterlimit="10"/>
<path d="M5.96875 26.7051H21.5633" stroke="#FEFDF6" stroke-width="2" stroke-miterlimit="10"/>
<path d="M5.89062 31.6328H21.4851" stroke="#FEFDF6" stroke-width="2" stroke-miterlimit="10"/>
</g>
<defs>
<clipPath id="clip0_4010_601">
<rect width="46" height="46" fill="white"/>
</clipPath>
</defs>
</svg>
