<svg width="46" height="46" viewBox="0 0 46 46" fill="none" xmlns="http://www.w3.org/2000/svg">
<g clip-path="url(#clip0_1_958)">
<path d="M40.001 0.499511L3.00104 44.413L45.5009 44.4127" stroke="#FEFDF6" stroke-width="2"/>
<path d="M2 0L2 45" stroke="#FEFDF6" stroke-width="2"/>
<path d="M29.7931 43.2076C30.1837 43.5981 30.8168 43.5981 31.2074 43.2076L37.5713 36.8436C37.9618 36.4531 37.9618 35.8199 37.5713 35.4294C37.1808 35.0389 36.5476 35.0389 36.1571 35.4294L30.5002 41.0863L24.8434 35.4294C24.4529 35.0389 23.8197 35.0389 23.4292 35.4294C23.0387 35.8199 23.0387 36.4531 23.4292 36.8436L29.7931 43.2076ZM21 23.5L20.3804 24.2849C22.0127 25.5736 24.2404 27.0956 26.1139 29.8173C27.9679 32.5104 29.5002 36.4337 29.5002 42.5005H30.5002H31.5002C31.5002 36.0673 29.8658 31.7403 27.7613 28.6832C25.6764 25.6546 23.154 23.9264 21.6196 22.7151L21 23.5Z" fill="#FEFDF6"/>
<circle cx="23" cy="5" r="4" stroke="#FEFDF6" stroke-width="2"/>
</g>
<defs>
<clipPath id="clip0_1_958">
<rect width="46" height="46" fill="white"/>
</clipPath>
</defs>
</svg>
