<svg width="46" height="46" viewBox="0 0 46 46" fill="none" xmlns="http://www.w3.org/2000/svg">
<path d="M3.73047 42.8145H42.076" stroke="#FEFDF6" stroke-width="2" stroke-miterlimit="10"/>
<path d="M10.1782 43L2 11.9466C7.73674 7.60629 15.0404 5 23 5C30.9596 5 38.2633 7.60629 44 11.9466L36.3007 42.741" stroke="#FEFDF6" stroke-width="2" stroke-miterlimit="10"/>
<path d="M23.5 36C25.9853 36 28 33.9853 28 31.5C28 29.0147 25.9853 27 23.5 27C21.0147 27 19 29.0147 19 31.5C19 33.9853 21.0147 36 23.5 36Z" stroke="#FEFDF6" stroke-width="2" stroke-miterlimit="10"/>
<path d="M24 32L19 13" stroke="#FEFDF6" stroke-width="2" stroke-miterlimit="10"/>
<path d="M23 5V8.76405" stroke="#FEFDF6" stroke-width="2" stroke-miterlimit="10"/>
<path d="M5.64453 9.95312L6.71171 13.9075" stroke="#FEFDF6" stroke-width="2" stroke-miterlimit="10"/>
<path d="M40.9122 10.498L39.8398 14.4471" stroke="#FEFDF6" stroke-width="2" stroke-miterlimit="10"/>
</svg>
