<svg width="24" height="24" viewBox="0 0 24 24" fill="none" xmlns="http://www.w3.org/2000/svg">
<path fill-rule="evenodd" clip-rule="evenodd" d="M12 16.5714C12 16.9749 12.0864 17.7143 12.2208 17.7143H0V15.4286H12.2208C12.0864 15.4286 12 16.168 12 16.5714ZM21.3792 17.7143C20.8836 18.8571 19.5648 20 18 20C16.0116 20 14.4 18.4651 14.4 16.5714C14.4 14.6777 16.0116 13.1429 18 13.1429C19.5648 13.1429 20.8836 14.2857 21.3792 15.4286H24V17.7143H21.3792ZM12 7.42857C12 7.02514 11.9136 6.64457 11.7792 6.28571H24V8.57143H11.7792C11.9136 8.57143 12 7.832 12 7.42857ZM9.6 7.42857C9.6 5.53486 7.9884 4 6 4C4.4352 4 3.1164 5.14286 2.6208 6.28571H0V8.57143H2.6208C3.1164 9.71428 4.4352 10.8571 6 10.8571C7.9884 10.8571 9.6 9.32228 9.6 7.42857Z" fill="#F1F3C7"/>
</svg>
