<svg width="280" height="43" viewBox="0 0 280 43" fill="none" xmlns="http://www.w3.org/2000/svg">
<path d="M145.002 10H133.257L128.1 23.4259L122.949 10H111.544L107.367 20.8747L113.237 36.176L117.243 25.7458L122.425 39.2448H133.775L145.002 10Z" fill="#FEFDF6"/>
<path d="M101.23 10H89.4844L100.712 39.2448H112.062L112.263 38.7272L101.23 10Z" fill="#FEFDF6"/>
<path d="M58.5638 10L47.3359 39.2448H59.0874L68.2024 15.4861H73.1405L77.7011 27.3654H65.6025L63.5079 32.8454H79.8078L82.2616 39.2448H94.007L82.7852 10H58.5638Z" fill="#FEFDF6"/>
<path d="M41.6782 23.6634C42.6707 22.2508 43.2552 20.5337 43.2552 18.6766C43.2552 13.8847 39.3644 10 34.5725 10H0V39.2387H10.966V27.3593H30.9131C32.6789 27.3593 34.1098 28.7902 34.1098 30.556C34.1098 32.3217 32.6789 33.7526 30.9131 33.7526H12.7927V39.2387H36.4053C41.1972 39.2387 45.088 35.3479 45.088 30.556C45.088 27.7429 43.7545 25.2465 41.6782 23.6634ZM10.966 21.8794V15.48H29.0804C30.8461 15.48 32.277 16.9108 32.277 18.6766C32.277 20.4424 30.8461 21.8733 29.0804 21.8733H10.966V21.8794Z" fill="#FEFDF6"/>
<path d="M174.648 31H169.496L165.944 24.312H161.88V31H157.4V10.52H166.104C168.579 10.52 170.509 11.128 171.896 12.344C173.304 13.56 174.008 15.256 174.008 17.432C174.008 18.84 173.688 20.0667 173.048 21.112C172.408 22.1573 171.491 22.9573 170.296 23.512L174.648 31ZM169.464 17.496C169.464 16.536 169.176 15.8 168.6 15.288C168.045 14.7547 167.256 14.488 166.232 14.488H161.88V20.472H166.232C167.256 20.472 168.045 20.216 168.6 19.704C169.176 19.1707 169.464 18.4347 169.464 17.496ZM186.475 31.32C183.488 31.32 181.195 30.5413 179.595 28.984C177.995 27.4267 177.195 25.1973 177.195 22.296V10.52H181.675V22.104C181.675 23.7893 182.069 25.0587 182.859 25.912C183.669 26.7653 184.875 27.192 186.475 27.192C188.053 27.192 189.248 26.7653 190.059 25.912C190.869 25.0587 191.275 23.7893 191.275 22.104V10.52H195.755V22.296C195.755 25.1973 194.955 27.4267 193.355 28.984C191.755 30.5413 189.461 31.32 186.475 31.32ZM207.343 27.352C208.346 27.352 209.146 27.1707 209.743 26.808C210.341 26.424 210.639 25.9013 210.639 25.24C210.639 24.6213 210.383 24.1413 209.871 23.8C209.381 23.4587 208.549 23.192 207.375 23L205.583 22.744C203.407 22.3813 201.733 21.6667 200.559 20.6C199.386 19.512 198.799 18.1573 198.799 16.536C198.799 14.616 199.514 13.08 200.943 11.928C202.373 10.776 204.271 10.2 206.639 10.2C209.05 10.2 211.002 10.7973 212.495 11.992C214.01 13.1867 214.767 14.7653 214.767 16.728H210.191C210.191 15.9173 209.871 15.288 209.231 14.84C208.613 14.3707 207.759 14.136 206.671 14.136C205.669 14.136 204.869 14.328 204.271 14.712C203.674 15.0747 203.375 15.5867 203.375 16.248C203.375 16.8453 203.642 17.3147 204.175 17.656C204.73 17.976 205.775 18.2533 207.311 18.488L209.103 18.776C211.13 19.096 212.666 19.768 213.711 20.792C214.778 21.816 215.311 23.1493 215.311 24.792C215.311 26.7973 214.586 28.3867 213.135 29.56C211.706 30.7333 209.754 31.32 207.279 31.32C204.741 31.32 202.671 30.6907 201.071 29.432C199.471 28.152 198.671 26.5307 198.671 24.568H203.375C203.375 25.3787 203.749 26.0507 204.495 26.584C205.242 27.096 206.191 27.352 207.343 27.352ZM226.148 27.352C227.151 27.352 227.951 27.1707 228.548 26.808C229.146 26.424 229.444 25.9013 229.444 25.24C229.444 24.6213 229.188 24.1413 228.676 23.8C228.186 23.4587 227.354 23.192 226.18 23L224.388 22.744C222.212 22.3813 220.538 21.6667 219.364 20.6C218.191 19.512 217.604 18.1573 217.604 16.536C217.604 14.616 218.319 13.08 219.748 11.928C221.178 10.776 223.076 10.2 225.444 10.2C227.855 10.2 229.807 10.7973 231.3 11.992C232.815 13.1867 233.572 14.7653 233.572 16.728H228.996C228.996 15.9173 228.676 15.288 228.036 14.84C227.418 14.3707 226.564 14.136 225.476 14.136C224.474 14.136 223.674 14.328 223.076 14.712C222.479 15.0747 222.18 15.5867 222.18 16.248C222.18 16.8453 222.447 17.3147 222.98 17.656C223.535 17.976 224.58 18.2533 226.116 18.488L227.908 18.776C229.935 19.096 231.471 19.768 232.516 20.792C233.583 21.816 234.116 23.1493 234.116 24.792C234.116 26.7973 233.391 28.3867 231.94 29.56C230.511 30.7333 228.559 31.32 226.084 31.32C223.546 31.32 221.476 30.6907 219.876 29.432C218.276 28.152 217.476 26.5307 217.476 24.568H222.18C222.18 25.3787 222.554 26.0507 223.3 26.584C224.047 27.096 224.996 27.352 226.148 27.352ZM237.401 31V10.52H241.881V31H237.401ZM253.179 10.52H257.819L266.523 31H261.659L259.867 26.648H250.939L249.147 31H244.475L253.179 10.52ZM255.419 15.768L252.571 22.648H258.235L255.419 15.768Z" fill="#FEFDF6"/>
</svg>
