<svg width="446" height="90" viewBox="0 0 446 90" fill="none" xmlns="http://www.w3.org/2000/svg">
<path d="M446 0H409.874L394.011 41.3179L378.167 0H343.089L330.242 33.4666L348.296 80.5559L360.619 48.4572L376.556 90H411.465L446 0Z" fill="#EEECE0"/>
<path d="M311.367 0H275.24L309.775 90H344.684L345.302 88.4072L311.367 0Z" fill="#EEECE0"/>
<path d="M180.131 0L145.596 90H181.742L209.778 16.8832H224.966L238.993 53.4416H201.781L195.338 70.3061H245.473L253.021 90H289.147L254.631 0H180.131Z" fill="#EEECE0"/>
<path d="M128.194 42.0487C131.246 37.7014 133.044 32.4172 133.044 26.7021C133.044 11.955 121.077 0 106.338 0H0V89.9813H33.7293V53.4229H95.0824C100.514 53.4229 104.915 57.8264 104.915 63.2605C104.915 68.6946 100.514 73.0981 95.0824 73.0981H39.3477V89.9813H111.975C126.714 89.9813 138.681 78.0075 138.681 63.2605C138.681 54.6034 134.58 46.9207 128.194 42.0487ZM33.7293 36.5584V16.8645H89.4453C94.8764 16.8645 99.2775 21.268 99.2775 26.7021C99.2775 32.1362 94.8764 36.5397 89.4453 36.5397H33.7293V36.5584Z" fill="#EEECE0"/>
</svg>
