<svg width="102" height="14" viewBox="0 0 102 14" fill="none" xmlns="http://www.w3.org/2000/svg">
<path d="M59.7683 0H54.9277L52.8023 5.84293L50.6793 0H45.9792L44.2578 4.73264L46.6769 11.3917L48.328 6.85253L50.4635 12.7273H55.141L59.7683 0Z" fill="#FEFDF6"/>
<path d="M41.7195 0H36.8789L41.5062 12.7273H46.1837L46.2665 12.502L41.7195 0Z" fill="#FEFDF6"/>
<path d="M24.1449 0L19.5176 12.7273H24.3607L28.1172 2.38752H30.1523L32.0319 7.55739H27.0457L26.1825 9.94226H32.9001L33.9114 12.7273H38.752L34.1272 0H24.1449Z" fill="#FEFDF6"/>
<path d="M17.1767 5.94628C17.5857 5.33151 17.8266 4.58425 17.8266 3.77605C17.8266 1.69061 16.2231 0 14.2483 0H0V12.7246H4.51939V7.55474H12.7401C13.4678 7.55474 14.0576 8.17746 14.0576 8.94591C14.0576 9.71437 13.4678 10.3371 12.7401 10.3371H5.27221V12.7246H15.0036C16.9785 12.7246 18.582 11.0314 18.582 8.94591C18.582 7.72168 18.0324 6.63524 17.1767 5.94628ZM4.51939 5.16987V2.38487H11.9848C12.7125 2.38487 13.3022 3.00759 13.3022 3.77605C13.3022 4.5445 12.7125 5.16722 11.9848 5.16722H4.51939V5.16987Z" fill="#FEFDF6"/>
<path d="M69.7974 13.8843H67.9916L66.7466 11.4661H65.3222V13.8843H63.752V6.47935H66.8027C67.6701 6.47935 68.3468 6.69918 68.8328 7.13885C69.3263 7.57852 69.5731 8.19175 69.5731 8.97852C69.5731 9.48761 69.4609 9.93114 69.2366 10.3091C69.0123 10.6871 68.6908 10.9763 68.272 11.1769L69.7974 13.8843ZM67.9804 9.00166C67.9804 8.65455 67.8795 8.38844 67.6776 8.20332C67.4832 8.01048 67.2065 7.91406 66.8476 7.91406H65.3222V10.0777H66.8476C67.2065 10.0777 67.4832 9.98513 67.6776 9.80001C67.8795 9.60717 67.9804 9.34106 67.9804 9.00166Z" fill="#FEFDF6"/>
<path d="M73.9426 14C72.8958 14 72.092 13.7185 71.5312 13.1554C70.9704 12.5923 70.69 11.7862 70.69 10.7372V6.47935H72.2602V10.6678C72.2602 11.2771 72.3985 11.7361 72.6752 12.0446C72.9593 12.3532 73.3818 12.5074 73.9426 12.5074C74.4959 12.5074 74.9147 12.3532 75.1988 12.0446C75.4829 11.7361 75.625 11.2771 75.625 10.6678V6.47935H77.1953V10.7372C77.1953 11.7862 76.9149 12.5923 76.3541 13.1554C75.7933 13.7185 74.9894 14 73.9426 14Z" fill="#FEFDF6"/>
<path d="M81.2571 12.5653C81.6086 12.5653 81.889 12.4997 82.0983 12.3686C82.3077 12.2298 82.4124 12.0408 82.4124 11.8017C82.4124 11.578 82.3227 11.4044 82.1432 11.281C81.9712 11.1576 81.6796 11.0612 81.2684 10.9917L80.6403 10.8992C79.8776 10.7681 79.2906 10.5096 78.8793 10.124C78.4681 9.73059 78.2625 9.24078 78.2625 8.65455C78.2625 7.96034 78.5129 7.40497 79.0139 6.98844C79.5149 6.57191 80.1804 6.36365 81.0104 6.36365C81.8553 6.36365 82.5395 6.57963 83.0629 7.01158C83.5938 7.44354 83.8593 8.01433 83.8593 8.72398H82.2554C82.2554 8.43086 82.1432 8.20332 81.9189 8.04133C81.702 7.87164 81.403 7.78679 81.0216 7.78679C80.6702 7.78679 80.3898 7.85621 80.1804 7.99505C79.971 8.12618 79.8664 8.3113 79.8664 8.55042C79.8664 8.7664 79.9598 8.9361 80.1468 9.05951C80.3412 9.17522 80.7076 9.27549 81.2459 9.36034L81.874 9.46447C82.5844 9.58017 83.1227 9.82315 83.4891 10.1934C83.863 10.5636 84.0499 11.0457 84.0499 11.6397C84.0499 12.3647 83.7957 12.9394 83.2872 13.3636C82.7863 13.7879 82.1021 14 81.2347 14C80.3449 14 79.6196 13.7725 79.0588 13.3174C78.498 12.8546 78.2176 12.2683 78.2176 11.5587H79.8664C79.8664 11.8518 79.9972 12.0948 80.2589 12.2876C80.5206 12.4727 80.8534 12.5653 81.2571 12.5653Z" fill="#FEFDF6"/>
<path d="M87.8483 12.5653C88.1998 12.5653 88.4802 12.4997 88.6895 12.3686C88.8989 12.2298 89.0036 12.0408 89.0036 11.8017C89.0036 11.578 88.9139 11.4044 88.7344 11.281C88.5624 11.1576 88.2708 11.0612 87.8595 10.9917L87.2314 10.8992C86.4688 10.7681 85.8818 10.5096 85.4705 10.124C85.0593 9.73059 84.8536 9.24078 84.8536 8.65455C84.8536 7.96034 85.1041 7.40497 85.6051 6.98844C86.1061 6.57191 86.7716 6.36365 87.6016 6.36365C88.4465 6.36365 89.1307 6.57963 89.6541 7.01158C90.185 7.44354 90.4504 8.01433 90.4504 8.72398H88.8466C88.8466 8.43086 88.7344 8.20332 88.5101 8.04133C88.2932 7.87164 87.9941 7.78679 87.6128 7.78679C87.2614 7.78679 86.981 7.85621 86.7716 7.99505C86.5622 8.12618 86.4575 8.3113 86.4575 8.55042C86.4575 8.7664 86.551 8.9361 86.7379 9.05951C86.9323 9.17522 87.2987 9.27549 87.8371 9.36034L88.4652 9.46447C89.1756 9.58017 89.7139 9.82315 90.0803 10.1934C90.4542 10.5636 90.6411 11.0457 90.6411 11.6397C90.6411 12.3647 90.3869 12.9394 89.8784 13.3636C89.3774 13.7879 88.6933 14 87.8259 14C86.9361 14 86.2108 13.7725 85.65 13.3174C85.0892 12.8546 84.8088 12.2683 84.8088 11.5587H86.4575C86.4575 11.8518 86.5884 12.0948 86.8501 12.2876C87.1118 12.4727 87.4445 12.5653 87.8483 12.5653Z" fill="#FEFDF6"/>
<path d="M91.7925 13.8843V6.47935H93.3628V13.8843H91.7925Z" fill="#FEFDF6"/>
<path d="M97.3225 6.47935H98.9488L102 13.8843H100.295L99.6666 12.3108H96.5373L95.9092 13.8843H94.2717L97.3225 6.47935ZM98.1076 8.37687L97.1094 10.8645H99.0946L98.1076 8.37687Z" fill="#FEFDF6"/>
</svg>
