<svg width="383" height="78" viewBox="0 0 383 78" fill="none" xmlns="http://www.w3.org/2000/svg">
<path d="M383 0H351.977L338.355 35.4622L324.749 0H294.626L283.594 28.7235L299.097 69.1391L309.68 41.5896L323.366 77.2448H353.344L383 0Z" fill="#921539"/>
<path d="M267.383 0H236.359L266.016 77.2448H295.994L296.524 75.8777L267.383 0Z" fill="#921539"/>
<path d="M154.688 0L125.031 77.2448H156.071L180.146 14.4904H193.189L205.235 45.8676H173.279L167.747 60.3419H210.8L217.281 77.2448H248.304L218.664 0H154.688Z" fill="#921539"/>
<path d="M110.085 36.0894C112.707 32.3582 114.251 27.8229 114.251 22.9177C114.251 10.2607 103.974 0 91.317 0H0V77.2287H28.9648V45.8515H81.6514C86.3154 45.8515 90.0948 49.6309 90.0948 54.2949C90.0948 58.9588 86.3154 62.7383 81.6514 62.7383H33.7896V77.2287H96.1579C108.815 77.2287 119.092 66.9519 119.092 54.2949C119.092 46.8647 115.57 40.2709 110.085 36.0894ZM28.9648 31.3772V14.4743H76.8105C81.4745 14.4743 85.2539 18.2538 85.2539 22.9177C85.2539 27.5817 81.4745 31.3611 76.8105 31.3611H28.9648V31.3772Z" fill="#921539"/>
</svg>
