<svg width="40" height="40" viewBox="0 0 40 40" fill="none" xmlns="http://www.w3.org/2000/svg">
<path d="M20 35C20 35 31.5 24.3388 31.5 16.25C31.5 13.2663 30.2884 10.4048 28.1317 8.29505C25.9751 6.18526 23.05 5 20 5C16.95 5 14.0249 6.18526 11.8683 8.29505C9.7116 10.4048 8.5 13.2663 8.5 16.25C8.5 24.3388 20 35 20 35ZM20 21.875C18.475 21.875 17.0125 21.2824 15.9341 20.2275C14.8558 19.1726 14.25 17.7418 14.25 16.25C14.25 14.7582 14.8558 13.3274 15.9341 12.2725C17.0125 11.2176 18.475 10.625 20 10.625C21.525 10.625 22.9875 11.2176 24.0659 12.2725C25.1442 13.3274 25.75 14.7582 25.75 16.25C25.75 17.7418 25.1442 19.1726 24.0659 20.2275C22.9875 21.2824 21.525 21.875 20 21.875Z" fill="#FEFDF6"/>
</svg>
