<svg width="40" height="40" viewBox="0 0 40 40" fill="none" xmlns="http://www.w3.org/2000/svg">
<path d="M20 5C28.5 5 35 12 35 20C35 28 28.5 35 20 35C11.5 35 5 28.5 5 20C5 11.5 11.5 5 20 5ZM17 23.5L11.26 27.5C11.26 27.5 14 31.5 20 31.5C26 31.5 28.76 27.5 28.76 27.5L23 23.5C21.12 24.76 18.88 24.76 17 23.5ZM18 8.5C13 9.5 8.5 14.5 8.5 20C8.5 23.12 9.38 24.38 9.38 24.38L15.5 20.5C15.5 20.5 15 17.5 18 16V8.5ZM22 8.5V16C25 17.5 24.5 20.5 24.5 20.5L30.62 24.38C30.62 24.38 31.5 23 31.5 20C31.5 14.5 27 9.5 22 8.5Z" fill="#FEFDF6"/>
</svg>
