<svg width="40" height="40" viewBox="0 0 40 40" fill="none" xmlns="http://www.w3.org/2000/svg">
<path d="M34.7264 10.9125L28.508 17.0432C28.508 17.0432 26.6496 17.0432 24.7912 15.1898C22.9329 13.3363 22.9329 11.4828 22.9329 11.4828L29.1513 5.28085C25.649 4.42541 21.4319 5.566 18.8587 8.13234C14.999 11.9818 18.4299 16.9006 17.4292 17.8987C11.997 23.5303 6.42192 27.8076 6.27897 28.0214C4.63503 29.661 4.56355 32.2987 6.13602 33.867C7.70849 35.4353 10.3531 35.364 11.997 33.7244C12.2115 33.5105 16.7859 27.7363 22.1466 22.3898C23.1473 21.3917 27.8647 25.0274 31.8674 21.1066C34.369 18.5403 35.5841 14.4056 34.7264 10.9125ZM9.49539 32.37C8.49473 32.37 7.70849 31.5858 7.70849 30.5878C7.70849 29.5185 8.49473 28.7343 9.49539 28.7343C10.4961 28.7343 11.2823 29.5185 11.2823 30.5165C11.2823 31.5145 10.4961 32.37 9.49539 32.37Z" fill="#FEFDF6"/>
</svg>
