<svg width="40" height="40" viewBox="0 0 40 40" fill="none" xmlns="http://www.w3.org/2000/svg">
<path d="M20 5C11.729 5 5 11.729 5 20V26.2145C5 27.7505 6.3455 29 8 29H9.5C9.89782 29 10.2794 28.842 10.5607 28.5607C10.842 28.2794 11 27.8978 11 27.5V19.7855C11 19.3877 10.842 19.0061 10.5607 18.7248C10.2794 18.4435 9.89782 18.2855 9.5 18.2855H8.138C8.972 12.4805 13.967 8 20 8C26.033 8 31.028 12.4805 31.862 18.2855H30.5C30.1022 18.2855 29.7206 18.4435 29.4393 18.7248C29.158 19.0061 29 19.3877 29 19.7855V29C29 30.6545 27.6545 32 26 32H23V30.5H17V35H26C29.309 35 32 32.309 32 29C33.6545 29 35 27.7505 35 26.2145V20C35 11.729 28.271 5 20 5Z" fill="#FEFDF6"/>
</svg>
