<svg width="26" height="26" viewBox="0 0 26 26" fill="none" xmlns="http://www.w3.org/2000/svg">
<path d="M18.5011 11.2875C18.0496 11.2875 17.6926 10.92 17.6926 10.479C17.6926 10.0905 17.3041 9.28201 16.6531 8.57851C16.0126 7.89601 15.3091 7.497 14.7211 7.497C14.2696 7.497 13.9126 7.1295 13.9126 6.6885C13.9126 6.2475 14.2801 5.88 14.7211 5.88C15.7711 5.88 16.8736 6.44701 17.8396 7.46551C18.7426 8.42101 19.3201 9.60751 19.3201 10.4685C19.3201 10.92 18.9526 11.2875 18.5011 11.2875Z" fill="#921539"/>
<path d="M22.2916 11.2875C21.8401 11.2875 21.4831 10.92 21.4831 10.479C21.4831 6.75151 18.4486 3.72751 14.7316 3.72751C14.2801 3.72751 13.9231 3.36001 13.9231 2.91901C13.9231 2.47801 14.2801 2.10001 14.7211 2.10001C19.3411 2.10001 23.1001 5.85901 23.1001 10.479C23.1001 10.92 22.7326 11.2875 22.2916 11.2875Z" fill="#921539"/>
<path d="M11.6026 15.6975L9.6601 17.64C9.2506 18.0495 8.5996 18.0495 8.1796 17.6505C8.0641 17.535 7.9486 17.43 7.8331 17.3145C6.7516 16.2225 5.7751 15.078 4.9036 13.881C4.0426 12.684 3.3496 11.487 2.8456 10.3005C2.3521 9.10351 2.1001 7.95901 2.1001 6.86701C2.1001 6.15301 2.2261 5.47051 2.4781 4.84051C2.7301 4.20001 3.1291 3.61201 3.6856 3.08701C4.3576 2.42551 5.0926 2.10001 5.8696 2.10001C6.1636 2.10001 6.4576 2.16301 6.7201 2.28901C6.9931 2.41501 7.2346 2.60401 7.4236 2.87701L9.8596 6.31051C10.0486 6.57301 10.1851 6.81451 10.2796 7.04551C10.3741 7.26601 10.4266 7.48651 10.4266 7.68601C10.4266 7.93801 10.3531 8.19001 10.2061 8.43151C10.0696 8.67301 9.8701 8.92501 9.6181 9.17701L8.8201 10.0065C8.7046 10.122 8.6521 10.2585 8.6521 10.4265C8.6521 10.5105 8.6626 10.584 8.6836 10.668C8.7151 10.752 8.7466 10.815 8.7676 10.878C8.9566 11.2245 9.2821 11.676 9.7441 12.222C10.2166 12.768 10.7206 13.3245 11.2666 13.881C11.3716 13.986 11.4871 14.091 11.5921 14.196C12.0121 14.6055 12.0226 15.2775 11.6026 15.6975Z" fill="#921539"/>
<path d="M23.0684 19.2465C23.0684 19.5405 23.0159 19.845 22.9109 20.139C22.8794 20.223 22.8479 20.307 22.8059 20.391C22.6274 20.769 22.3964 21.126 22.0919 21.462C21.5774 22.029 21.0104 22.4385 20.3699 22.701C20.3594 22.701 20.3489 22.7115 20.3384 22.7115C19.7189 22.9635 19.0469 23.1 18.3224 23.1C17.2514 23.1 16.1069 22.848 14.8994 22.3335C13.6919 21.819 12.4844 21.126 11.2874 20.2545C10.8779 19.95 8.3885 17.9255 8 17.6L11.4998 14.1C11.7938 14.3205 14.0699 16.275 14.2904 16.3905C14.3429 16.4115 14.4059 16.443 14.4794 16.4745C14.5634 16.506 14.6474 16.5165 14.7419 16.5165C14.9204 16.5165 15.0569 16.4535 15.1724 16.338L15.9704 15.5505C16.2329 15.288 16.4849 15.0885 16.7264 14.9625C16.9679 14.8155 17.2094 14.742 17.4719 14.742C17.6714 14.742 17.8814 14.784 18.1124 14.8785C18.3434 14.973 18.5849 15.1095 18.8474 15.288L22.3229 17.7555C22.5959 17.9445 22.7849 18.165 22.9004 18.4275C23.0054 18.69 23.0684 18.9525 23.0684 19.2465Z" fill="#921539"/>
</svg>
