<svg width="46" height="46" viewBox="0 0 46 46" fill="none" xmlns="http://www.w3.org/2000/svg">
<g clip-path="url(#clip0_1_536)">
<path d="M5 -1L5 14" stroke="#FDFFD1" stroke-width="2"/>
<path d="M5 -1L5 14" stroke="#FDFFD1" stroke-width="2"/>
<path d="M10 21H-1.49012e-07" stroke="#FDFFD1" stroke-width="2"/>
<path d="M5 32L5 47" stroke="#FDFFD1" stroke-width="2"/>
<path d="M5 21L5 47" stroke="#FDFFD1" stroke-width="2"/>
<path d="M41 49L41 34" stroke="#FDFFD1" stroke-width="2"/>
<path d="M41 49L41 34" stroke="#FDFFD1" stroke-width="2"/>
<path d="M36 34L46 34" stroke="#FDFFD1" stroke-width="2"/>
<path d="M36 34L46 34" stroke="#FDFFD1" stroke-width="2"/>
<path d="M41 27L41 -2" stroke="#FDFFD1" stroke-width="2"/>
<path d="M23 47L23 32" stroke="#FDFFD1" stroke-width="2"/>
<path d="M23 47L23 18" stroke="#FDFFD1" stroke-width="2"/>
<path d="M18 17L28 17" stroke="#FDFFD1" stroke-width="2"/>
<path d="M23 9L23 -1" stroke="#FDFFD1" stroke-width="2"/>
</g>
<defs>
<clipPath id="clip0_1_536">
<rect width="46" height="46" fill="white"/>
</clipPath>
</defs>
</svg>
