<svg width="46" height="46" viewBox="0 0 46 46" fill="none" xmlns="http://www.w3.org/2000/svg">
<path d="M45 28H1V32.2632L4.54023 33.6842H10.5882L12.6322 37H33.8526L35.8966 33.6842H41.9655L45 31.7895V28Z" stroke="#FDFFD1" stroke-width="2"/>
<path d="M1 32V45H8V34.6" stroke="#FDFFD1" stroke-width="2"/>
<path d="M45 32V45H38V34.6" stroke="#FDFFD1" stroke-width="2"/>
<path d="M1 27.5L2 20H6.5L8 28" stroke="#FDFFD1" stroke-width="2"/>
<path d="M45 28L44 20H39.5L38 28" stroke="#FDFFD1" stroke-width="2"/>
<path d="M5 19V15L6.47945 2H39.0274L41 15V19" stroke="#FDFFD1" stroke-width="2"/>
<path d="M40 9.5H45V15H41.5" stroke="#FDFFD1" stroke-width="2"/>
<path d="M6 9H1V14.5H4.5" stroke="#FDFFD1" stroke-width="2"/>
<path d="M6 16H40.5" stroke="#FDFFD1" stroke-width="2"/>
<circle cx="12.5" cy="22.5" r="2.5" stroke="#FDFFD1" stroke-width="2"/>
<circle cx="33.5" cy="22.5" r="2.5" stroke="#FDFFD1" stroke-width="2"/>
<path d="M16 19H30" stroke="#FDFFD1" stroke-width="2"/>
<path d="M19 23H27" stroke="#FDFFD1" stroke-width="2"/>
<path d="M14 32H18" stroke="#FDFFD1" stroke-width="2"/>
<path d="M29 32H33" stroke="#FDFFD1" stroke-width="2"/>
</svg>
