<svg width="52" height="50" viewBox="0 0 52 50" fill="none" xmlns="http://www.w3.org/2000/svg">
<path d="M37.2167 37.4331C33.9175 39.8028 29.8711 41.2005 25.5006 41.2005C21.0805 41.2005 16.9938 39.7744 13.6758 37.3574" stroke="#FDFFD1" stroke-width="2" stroke-miterlimit="10"/>
<path d="M6.41928 27.4309C5.75945 25.4396 5.40234 23.3111 5.40234 21.0999C5.40234 9.9987 14.401 1 25.5022 1C36.6034 1 45.6021 9.9987 45.6021 21.0999C45.6021 23.3395 45.2355 25.494 44.5591 27.5066" stroke="#FDFFD1" stroke-width="2" stroke-miterlimit="10"/>
<path d="M25.5042 29.8384C30.3304 29.8384 34.2427 25.9261 34.2427 21.0999C34.2427 16.2737 30.3304 12.3613 25.5042 12.3613C20.678 12.3613 16.7656 16.2737 16.7656 21.0999C16.7656 25.9261 20.678 29.8384 25.5042 29.8384Z" stroke="#FDFFD1" stroke-width="2" stroke-miterlimit="10"/>
<path d="M6.10547 19.3184H16.9724" stroke="#FDFFD1" stroke-width="2" stroke-miterlimit="10"/>
<path d="M6.23828 22.877H16.8611" stroke="#FDFFD1" stroke-width="2" stroke-miterlimit="10"/>
<path d="M45.9332 19.3184H33.9961" stroke="#FDFFD1" stroke-width="2" stroke-miterlimit="10"/>
<path d="M45.79 22.877H34.1211" stroke="#FDFFD1" stroke-width="2" stroke-miterlimit="10"/>
<path d="M27.2812 41.0354V29.6777" stroke="#FDFFD1" stroke-width="2" stroke-miterlimit="10"/>
<path d="M23.7227 40.8963V29.7969" stroke="#FDFFD1" stroke-width="2" stroke-miterlimit="10"/>
<path d="M5.53541 23.793C5.53541 23.793 3.64816 24.0555 2.54845 26.884C2.01397 28.2604 1.54098 29.9206 1.19569 31.2639C0.81966 32.7255 0.989938 34.2721 1.66868 35.6202C3.06402 38.3872 5.13809 43.7817 3.33362 48.7883" stroke="#FDFFD1" stroke-width="2" stroke-miterlimit="10"/>
<path d="M7.65581 38.239C7.65581 38.239 7.91595 35.4246 7.28451 33.7597C6.94159 32.8516 6.39055 31.4822 5.95776 30.4227C5.60301 29.5548 5.24354 27.9608 6.09493 27.5682C6.77131 27.0385 7.95143 27.4665 8.42915 28.1926C10.165 30.8295 13.7929 35.1905 13.8615 38.5275C13.9845 44.6055 11.2174 46.3744 11.7732 49.0776" stroke="#FDFFD1" stroke-width="2" stroke-miterlimit="10"/>
<path d="M45.4805 23.918C45.4805 23.918 47.3677 24.1805 48.4674 27.009C49.0019 28.3854 49.4749 30.0456 49.8202 31.3889C50.1962 32.8505 50.0259 34.3971 49.3472 35.7452C47.9519 38.5122 45.8778 43.9067 47.6823 48.9133" stroke="#FDFFD1" stroke-width="2" stroke-miterlimit="10"/>
<path d="M43.3581 38.3659C43.3581 38.3659 43.098 35.5516 43.7294 33.8867C44.0723 32.9785 44.6234 31.6092 45.0561 30.5497C45.4109 29.6817 45.7704 28.0878 44.919 27.6952C44.2426 27.1654 43.0625 27.5935 42.5848 28.3195C40.8489 30.9565 37.221 35.3175 37.1524 38.6544C37.0294 44.7324 39.7965 46.5014 39.2407 49.2046" stroke="#FDFFD1" stroke-width="2" stroke-miterlimit="10"/>
</svg>
