<svg width="40" height="40" viewBox="0 0 40 40" fill="none" xmlns="http://www.w3.org/2000/svg">
<rect width="40" height="40" fill="#FEFDF6"/>
<path fill-rule="evenodd" clip-rule="evenodd" d="M27.1355 12.1095C27.3568 12.0125 27.5991 11.9791 27.837 12.0127C28.0749 12.0462 28.2999 12.1455 28.4884 12.3002C28.677 12.4549 28.8222 12.6594 28.9091 12.8923C28.9959 13.1252 29.0212 13.3781 28.9822 13.6247L26.951 26.4443C26.754 27.6808 25.45 28.39 24.3601 27.774C23.4484 27.2587 22.0943 26.4648 20.8763 25.6363C20.2673 25.2217 18.4018 23.8938 18.6311 22.9488C18.8281 22.1409 21.9627 19.1049 23.7538 17.2999C24.4568 16.5908 24.1362 16.1817 23.306 16.834C21.2444 18.4536 17.9344 20.9165 16.84 21.6098C15.8745 22.2211 15.3712 22.3254 14.7694 22.2211C13.6714 22.031 12.6531 21.7365 11.822 21.3777C10.699 20.8932 10.7536 19.2866 11.8211 18.8188L27.1355 12.1095Z" fill="#1B1D19"/>
<path d="M40 32.5L35 40H40V32.5Z" fill="#2F3629"/>
</svg>
