<svg width="40" height="40" viewBox="0 0 40 40" fill="none" xmlns="http://www.w3.org/2000/svg">
<rect width="40" height="40" fill="#FEFDF6"/>
<path d="M31.0356 26.9989H28.4078C27.414 26.9989 27.1146 26.2085 25.3331 24.4581C23.7762 22.9848 23.1187 22.8016 22.7249 22.8016C22.1802 22.8016 22.0316 22.9486 22.0316 23.6847V26.005C22.0316 26.6325 21.8244 27 20.1546 27C18.5347 26.8931 16.9639 26.4099 15.5714 25.5902C14.179 24.7704 13.0048 23.6375 12.1456 22.2849C10.1062 19.7912 8.68679 16.8652 8 13.7389C8 13.3522 8.1497 13.0016 8.90051 13.0016H11.526C12.2009 13.0016 12.4438 13.2968 12.7087 13.9786C13.9835 17.6625 16.1587 20.867 17.042 20.867C17.3805 20.867 17.5279 20.72 17.5279 19.8911V16.0964C17.4162 14.3653 16.48 14.2194 16.48 13.593C16.4919 13.4278 16.5688 13.2735 16.6946 13.1631C16.8204 13.0527 16.9851 12.9948 17.1537 13.0016H21.2808C21.8451 13.0016 22.0316 13.2775 22.0316 13.9401V19.0623C22.0316 19.6152 22.2735 19.7984 22.4439 19.7984C22.7824 19.7984 23.0427 19.6152 23.6634 19.0069C24.9933 17.4133 26.0802 15.6384 26.89 13.7377C26.9725 13.5093 27.129 13.3137 27.3356 13.181C27.5421 13.0482 27.7873 12.9856 28.0335 13.0028H30.6602C31.4479 13.0028 31.6148 13.3895 31.4479 13.9413C30.4922 16.0425 29.3101 18.0372 27.9218 19.8911C27.6385 20.3152 27.5257 20.5357 27.9218 21.0332C28.1821 21.4199 29.1033 22.1752 29.7217 22.8932C30.6222 23.7752 31.3696 24.7951 31.935 25.9122C32.1607 26.6314 31.7853 26.9989 31.0356 26.9989Z" fill="#1B1D19"/>
<path d="M40 32.5L35 40H40V32.5Z" fill="#2F3629"/>
</svg>
